<svg width="219" height="256" viewBox="0 0 219 256" fill="none" xmlns="http://www.w3.org/2000/svg">
<g clip-path="url(#clip0)">
<path d="M114.19 100.878C114.542 91.6737 119.227 84.8833 124.445 77.7409C124.526 79.5919 124.727 81.4429 124.667 83.2939C124.667 86.1488 125.068 88.9897 125.855 91.734C126.114 92.992 126.659 94.1737 127.449 95.1873C128.238 96.2009 129.251 97.0192 130.409 97.5787C131.89 98.2326 133.431 96.3917 134.106 95.0235C135.345 92.4181 136.433 89.1688 134.227 86.9758C130.943 83.656 130.993 79.934 131.829 76.1012C133.633 67.8422 137.612 60.4885 142.155 53.3561C143.092 57.7321 141.803 61.9069 140.574 65.8302C138.418 72.6708 139.042 79.1996 141.269 85.7082C142.611 89.2334 143.128 93.0185 142.78 96.7739C142.397 99.9025 143.989 100.375 146.578 99.7919C152.864 98.2728 157.377 92.4382 155.644 85.8591C152.955 75.3769 153.156 65.1663 155.272 54.674C157.156 45.2681 154.133 36.6268 150.436 27.5127C151.556 27.6437 152.604 28.1328 153.422 28.9069C154.241 29.681 154.787 30.6987 154.98 31.8082C155.876 35.4297 158.586 37.9648 159.956 41.2342C160.964 43.5781 162.233 43.1858 163.714 41.7975C166.651 38.9924 169.205 35.813 171.31 32.3414C172.025 31.1744 172.146 28.7802 174.07 29.5246C175.762 30.1886 174.221 31.9088 173.939 33.0757C171.813 41.8881 166.404 49.3825 163.764 58.0037C162.193 63.1443 160.873 68.3049 161.497 74.0993C164.308 72.9039 166.616 70.7703 168.025 68.0635C170.899 62.9924 173.417 57.7286 175.561 52.3099C176.911 48.6281 180.165 46.0729 183.278 43.6384C188.234 39.7755 193.352 36.1037 197.603 29.7661C197.774 36.6168 194.933 41.2543 192.203 45.8616C187.71 53.3561 181.555 59.6334 176.478 66.7155C171.546 73.377 168.11 81.0215 166.404 89.1285C165.853 91.78 165.147 94.3967 164.288 96.9651C161.155 106.592 155.1 112.477 144.402 112.93C138.871 113.161 133.27 113.574 128.062 115.948C124.737 117.437 122.42 119.368 122.017 123.493C121.312 130.223 117.343 135.786 113.958 141.379C109.515 148.833 106.906 156.418 107.682 165.21C108.74 176.437 109.697 187.694 106.614 198.81C106.614 198.951 106.614 199.102 106.533 199.252C105.214 204.282 100.62 209.312 96.7112 209.312C91.3417 209.403 89.4377 204.815 87.6446 201.083C82.2751 190.018 82.0938 178.117 83.3933 166.186C84.4007 157.132 86.9696 148.702 92.8831 141.308C95.9557 137.435 113.837 109.731 114.19 100.878Z" fill="black"/>
<path d="M129.733 251.192C130.932 252.057 132.513 253.325 131.818 254.834C130.992 256.645 128.876 255.84 127.355 255.639C123.608 255.075 120.193 253.456 116.798 251.826C112.597 249.814 108.426 247.651 103.701 246.917C101.687 246.605 98.8659 245.911 97.798 247.611C96.5992 249.623 99.3393 250.629 100.629 252.088C100.842 252.29 100.974 252.563 101 252.856C101.026 253.148 100.944 253.44 100.77 253.677C100.306 254.361 89.7488 250.941 84.2484 249.19C80.1483 247.893 76.9951 248.275 74.5572 252.148C73.721 253.466 72.5423 255.397 70.7592 254.824C68.9761 254.251 69.5101 251.997 69.5101 250.418C69.4295 245.116 68.7646 244.704 63.9794 247.4C61.2795 248.949 58.761 250.81 56.031 252.309C53.4923 253.717 48.9791 256.283 47.2363 254.582C46.3296 253.516 53.5326 250.347 55.5273 247.098C52.5756 244.392 49.1 244.905 45.5539 245.68C40.5169 246.766 32.8405 249.271 30.8156 249.704C28.7907 250.136 25.6577 250.709 25.2346 248.486C24.7309 245.8 28.0956 245.468 30.1306 244.945C45.3323 241.213 60.0203 235.892 74.6579 230.459C85.7291 226.353 95.4513 219.276 102.754 210.008C107.856 203.687 110.693 195.843 110.814 187.726C111.126 178.118 111.126 168.501 111.247 158.884C111.264 156.327 111.809 153.801 112.849 151.464C113.889 149.127 115.402 147.03 117.291 145.304C118.591 144.056 119.921 143.553 121.079 145.736C127.476 157.808 134.699 169.507 136.825 183.35C138.165 192.011 136.432 199.787 130.116 206.195C127.47 209.005 125.158 212.111 123.225 215.45C119.528 221.486 115.629 227.301 110.461 232.26C106.008 236.545 106.431 239.724 111.942 242.39C116.757 244.764 128.474 250.287 129.733 251.192Z" fill="black"/>
<path d="M101.999 122.548C100.679 128.453 94.534 133.412 90.7966 136.631C88.0967 132.366 84.873 128.352 80.2188 126.099C68.8049 120.616 62.6395 111.371 61.4508 99.0682C60.1412 84.7432 55.1847 71.6152 49.0295 58.8997C41.9776 44.3735 41.6956 30.0786 48.8582 15.6429C51.3767 10.4118 53.7441 5.1204 56.4641 0C56.741 3.88119 56.311 7.78035 55.1948 11.5083C53.2606 19.1135 50.4802 26.4269 49.6339 34.2031C49.0295 39.7259 49.4224 44.8664 52.7871 49.8761C58.3077 58.0949 63.0224 66.8469 68.2105 75.287C69.4093 77.2386 70.5175 80.3169 73.3281 79.6026C76.1388 78.8884 75.8769 75.7699 75.9877 73.436C76.4612 64.2616 75.4235 55.58 69.2582 47.995C64.9163 42.6432 61.3098 36.708 59.8893 29.7466C58.8819 24.9582 59.4461 20.5118 62.7806 16.3672C64.8884 18.958 66.0218 22.2038 65.9841 25.5417C66.1252 31.5775 69.2381 36.3156 72.4013 40.6916C76.2395 45.9931 80.934 50.6004 82.3041 57.3505C82.6265 58.9198 83.3115 60.7306 85.3263 60.9519C87.3412 61.1732 88.2579 59.5938 89.2351 58.276C94.0203 51.8277 96.9417 44.3835 100.317 37.1506C101.717 34.2131 102.825 31.1147 105.273 28.3081C106.724 31.6177 105.928 34.5954 105.374 37.4524C103.238 48.5181 98.6342 58.1955 88.9026 64.6136C87.0655 65.6932 85.6782 67.3962 84.9939 69.4121C81.5989 80.9305 75.3228 92.288 82.2034 104.621C82.9332 106.099 83.7928 107.51 84.7723 108.836C87.0692 111.623 88.9732 111.391 90.4742 108.072C92.5998 103.354 93.2546 98.183 93.4964 93.143C94.121 82.359 99.5409 74.8343 108.376 69.3719C116.793 64.2699 123.382 56.6443 127.204 47.5825C127.647 46.5765 127.647 44.2829 129.34 44.8262C131.284 45.4297 129.4 46.8381 129.34 47.9447C129.269 52.1094 127.184 55.751 126.61 59.7146C125.673 66.2433 122.167 71.0116 117.241 75.0456C114.914 76.9469 112.708 79.0091 110.542 81.0814C104.245 87.2883 100.74 94.5615 101.848 103.716C102.624 109.983 103.067 116.26 101.999 122.548Z" fill="black"/>
<path d="M121.1 244.087C115.458 241.502 113.524 238.756 115.881 233.022C118.581 226.413 123.386 221.524 129.401 217.801C130.65 217.027 132.272 216.021 133.259 217.982C136.906 225.195 143.897 228.354 150.385 231.986C164.307 239.802 175.792 243.947 190.681 249.671C191.356 249.922 197.481 251.481 196.726 252.065C193.865 253.986 191.538 253.181 189.2 252.407C182.965 250.395 177.404 246.643 170.926 245.134C169.832 244.739 168.69 244.492 167.531 244.399C166.771 244.365 166.017 244.546 165.355 244.921C164.694 245.297 164.152 245.852 163.794 246.522C163.018 248.131 164.448 248.916 165.426 249.811C166.05 250.385 167.219 250.817 166.796 251.823C166.282 253.111 165.013 252.749 164.056 252.487C159.573 251.27 155.372 249.942 150.959 248.463C148.803 247.729 142.386 245.315 140.805 250.687C140.422 251.994 137.964 251.069 136.644 250.546C133.531 249.349 124.706 245.747 121.1 244.087Z" fill="black"/>
<path d="M1.17865 29.1128C3.41509 43.9408 10.6583 54.9864 21.3872 63.8893C25.1851 67.048 26.4242 66.2634 27.0287 61.2335C27.6432 55.6805 26.7768 50.1678 26.9582 44.5746C27.0891 40.0779 27.7641 35.7422 31.0785 31.4265C32.0355 37.4624 30.3934 42.6934 30.4942 47.9748C30.828 58.8926 33.2846 69.6414 37.7273 79.6227C39.3694 83.4655 41.9484 86.2219 47.2372 84.6526C51.2669 83.4454 54.8331 85.4775 57.0192 89.3404C58.7224 92.518 59.7738 96.0029 60.1119 99.5913C60.2529 100.698 60.3839 101.603 59.2657 102.317C58.1475 103.032 57.4926 102.116 56.9386 101.623C51.9015 97.1669 45.6355 94.994 39.9739 91.6944C35.4521 89.2631 31.785 85.5064 29.4666 80.9305C25.2289 72.4435 19.3181 64.8987 12.0889 58.7488C5.60116 53.1254 1.21895 46.3451 0.181317 37.6736C-0.276903 34.7826 0.0680652 31.8215 1.17865 29.1128V29.1128Z" fill="black"/>
<path d="M138.841 115.576C151.051 115.083 157.981 125.304 161.215 133.351C161.86 134.951 161.316 135.695 159.624 135.363C148.431 133.301 137.118 131.581 126.933 126.108C123.327 124.167 123.468 120.877 127.125 118.885C130.782 116.894 134.761 115.415 138.841 115.576Z" fill="black"/>
<path d="M205.641 68.8304C196.766 74.1923 188.304 79.3227 178.603 81.9081C176.739 82.4111 174.573 83.0046 173.133 81.2039C171.692 79.4032 172.921 77.4516 173.676 75.6811C178.955 63.2473 193.069 59.9678 205.641 68.8304Z" fill="black"/>
<path d="M219 34.8762C213.197 38.3871 207.667 41.7269 201.33 43.427C200.111 43.759 198.691 44.1412 197.754 42.9643C196.817 41.7873 197.623 40.5197 198.106 39.3629C201.562 31.1843 210.78 29.0818 219 34.8762Z" fill="black"/>
<path d="M16.3201 40.3406C13.634 40.2348 11.0948 39.0882 9.24127 37.144C7.38772 35.1998 6.36564 32.6109 6.39185 29.9267C6.41806 27.2424 7.49051 24.674 9.38167 22.7662C11.2728 20.8585 13.8339 19.7615 16.5216 19.7081C17.9045 19.6806 19.2788 19.9305 20.5631 20.4431C21.8475 20.9557 23.0158 21.7205 23.9988 22.6921C24.9818 23.6638 25.7595 24.8226 26.2858 26.0998C26.8121 27.3771 27.0763 28.7469 27.0628 30.128C27.0494 31.5091 26.7584 32.8734 26.2073 34.1402C25.6561 35.407 24.8559 36.5504 23.8542 37.5028C22.8524 38.4551 21.6694 39.197 20.3753 39.6844C19.0811 40.1719 17.7022 40.395 16.3201 40.3406V40.3406Z" fill="black"/>
<path d="M62.6808 113.11C62.6808 115.778 61.6195 118.337 59.7302 120.224C57.8409 122.11 55.2786 123.17 52.6068 123.17C49.935 123.17 47.3726 122.11 45.4833 120.224C43.5941 118.337 42.5327 115.778 42.5327 113.11C42.5095 111.761 42.763 110.42 43.2776 109.172C43.7922 107.924 44.5571 106.794 45.5252 105.852C46.4933 104.909 47.6441 104.175 48.907 103.693C50.1699 103.211 51.5181 102.993 52.8687 103.051C54.1832 103.037 55.4866 103.291 56.7003 103.795C57.914 104.299 59.0126 105.044 59.9298 105.984C60.847 106.925 61.5637 108.041 62.0365 109.266C62.5094 110.491 62.7286 111.799 62.6808 113.11Z" fill="black"/>
<path d="M36.8915 72.5714C37.0124 68.7286 40.7398 65.429 44.9508 65.5296C49.3834 65.5296 52.5063 69.0404 52.3653 73.7584C52.3878 74.7672 52.201 75.7697 51.8166 76.7028C51.4323 77.636 50.8588 78.4796 50.1321 79.1807C49.4054 79.8818 48.5413 80.4251 47.5941 80.7766C46.647 81.128 45.6372 81.2799 44.6284 81.2228C39.944 81.092 36.7304 77.5107 36.8915 72.5714Z" fill="black"/>
<path d="M93.9916 41.6063C94.0335 43.5644 93.3102 45.4619 91.975 46.8965C90.6398 48.3312 88.7977 49.1904 86.839 49.2919C85.8184 49.3624 84.794 49.2254 83.8279 48.8893C82.8618 48.5532 81.974 48.0249 81.2182 47.3364C80.4624 46.6479 79.8543 45.8134 79.4306 44.8835C79.007 43.9536 78.7766 42.9476 78.7534 41.9263C78.7302 40.9049 78.9147 39.8895 79.2957 38.9414C79.6768 37.9933 80.2464 37.1322 80.9702 36.4102C81.694 35.6882 82.5569 35.1202 83.5068 34.7408C84.4566 34.3613 85.4737 34.1781 86.4965 34.2023C88.4656 34.2177 90.351 35.0002 91.751 36.3831C93.1509 37.7661 93.9549 39.6402 93.9916 41.6063Z" fill="black"/>
<path d="M19.0502 72.4305C19.1072 74.3927 18.3815 76.2971 17.0326 77.7251C15.6838 79.1532 13.8223 79.9879 11.8574 80.0457C10.8402 80.113 9.82013 79.9681 8.8621 79.6202C7.90408 79.2723 7.02907 78.7291 6.29278 78.0251C5.55649 77.321 4.97504 76.4717 4.58543 75.531C4.19583 74.5903 4.00661 73.5789 4.02981 72.5612C3.97234 70.5989 4.69036 68.6927 6.02871 67.2546C7.36706 65.8165 9.21829 64.962 11.1824 64.8756C12.1997 64.8406 13.2136 65.0098 14.1642 65.3733C15.1147 65.7367 15.9826 66.287 16.7163 66.9915C17.45 67.696 18.0346 68.5404 18.4355 69.4747C18.8364 70.409 19.0455 71.4141 19.0502 72.4305Z" fill="black"/>
<path d="M148.452 36.2148C145.168 42.7335 142.287 48.8197 137.542 53.7489C134.852 56.5355 133.341 56.0023 132.455 52.2098C130.379 43.307 136.897 36.3959 148.452 36.2148Z" fill="black"/>
<path d="M149.741 16.6689C153.035 23.1877 155.917 29.2738 160.651 34.2031C163.341 36.9896 164.862 36.4564 165.749 32.6639C167.824 23.8013 161.306 16.8903 149.741 16.6689Z" fill="black"/>
</g>
<defs>
<clipPath id="clip0">
<rect width="219" height="256" fill="white"/>
</clipPath>
</defs>
</svg>
